<?xml version="1.0" encoding="utf-8"?>
<!-- Generator: Adobe Illustrator 23.1.1, SVG Export Plug-In . SVG Version: 6.00 Build 0)  -->
<svg version="1.1" id="Layer_1" xmlns="http://www.w3.org/2000/svg" xmlns:xlink="http://www.w3.org/1999/xlink" x="0px" y="0px"
	 viewBox="0 0 70 70" style="enable-background:new 0 0 70 70;" xml:space="preserve">
<style type="text/css">
	.st0{fill:#FFFFFF;}
</style>
<path class="st0" d="M64.4,18.9L64,18.1l0,0c-2.3-4.6-8.3-9.3-15.5-12c-9.1-3.4-18.7-3.2-26.3,0.5C19.6,7.8,7.6,18.1,3.6,30
	c-1.9,5.7-1.7,10.9,0.6,15.5c7.1,14,16.2,20.9,28,20.9c4.9,0,10.4-1.2,16.3-3.6c0.3-0.1,0.7-0.3,1-0.4c7.4-3.2,12.8-8.6,15.7-15.6
	C68.7,38.6,68.4,28.4,64.4,18.9z M47.9,60.9c-19,7.7-31.4,2.7-41.2-16.7c-2-4-2.2-9.1-0.4-14.3C10,18.9,20.7,9.5,23.1,8.4
	C23.4,8.3,23.7,8.1,24,8c6.9-3,15.6-3,23.8,0c7,2.6,12.7,8.8,14.6,13.3c4.1,9.8,4.4,19.2,0.8,25.3C59.9,52.1,55.7,57.8,47.9,60.9z"
	/>
<g>
	<path class="st0" d="M54.4,33.2c0.2,0,0.3,0.1,0.5,0.1c0-0.1-0.2-0.1-0.2-0.2c0.1,0,0.1,0,0.2,0c0-0.2-0.3-0.2-0.3-0.3h0.1
		c-0.1-0.1-0.2-0.1-0.3,0c0,0-0.1,0-0.1-0.1c-0.2-0.1-0.4-0.2-0.7-0.2c-0.2-0.1-0.5-0.1-0.7-0.1c0,0-0.1,0-0.2,0c0,0,0,0-0.1,0
		l-0.1-0.1c0.1,0,0.2,0.1,0.2,0.1c0-0.1-0.1-0.1-0.1-0.1c0-0.1,0.1,0,0.1,0s0,0,0-0.1c0,0,0,0,0.1,0c0-0.1-0.1-0.1-0.2-0.1
		c0,0,0,0,0-0.1c-0.1-0.2-0.4-0.4-0.6-0.5c0.1,0,0-0.1,0.1-0.1c0-0.1-0.1,0-0.1-0.1v-0.1c-0.2-0.2-0.4-0.3-0.6-0.5
		c-0.5-0.4-1-0.7-1.6-1.1c-0.1-0.1-0.2-0.2-0.4-0.3c-0.2-0.1-0.4-0.2-0.5-0.4c-0.3-0.2-0.6-0.4-0.8-0.6c-0.9-0.6-1.8-1.3-2.7-1.9
		c0-0.1-0.1-0.1-0.2-0.2c0,0,0-0.1-0.1-0.1H45c-0.1,0-0.1-0.1-0.2-0.1v-0.1h-0.1c-0.1-0.1-0.1-0.1-0.2-0.2c0-0.1-0.1-0.1-0.2-0.2
		c-0.1-0.1-0.3-0.3-0.4-0.3c-0.3-0.2-0.6-0.5-0.9-0.7c0-0.1-0.1-0.1-0.2-0.2l-0.1-0.1c-0.7-0.5-1.2-1-1.9-1.4
		c-0.1-0.2-0.3-0.3-0.5-0.4s-0.4-0.4-0.7-0.5c0-0.1-0.1-0.1-0.1-0.1l-0.1-0.1c0-0.2-0.3-0.3-0.4-0.4c0,0,0,0-0.1,0
		c0-0.1-0.2-0.2-0.3-0.2c-0.2,0-0.2-0.2-0.3-0.2v-0.1l0,0h-0.1c0-0.1-0.1-0.1-0.1-0.1c0-0.1-0.1-0.1-0.1-0.1v-0.1h-0.1l0,0
		c-0.1,0-0.1-0.1-0.2-0.1c0-0.1,0-0.1-0.1-0.2c0,0,0,0.1-0.1,0s0,0,0,0s0.1,0,0-0.1c0,0-0.1,0.1-0.1,0V20c-0.1,0.1-0.1-0.1-0.2-0.1
		c-0.1,0-0.1,0-0.2,0c0,0,0,0,0-0.1c-0.1,0-0.1-0.1-0.1-0.1v0.1c-0.1-0.1-0.1-0.1-0.2-0.2c0,0.1,0.1,0.1,0.1,0.1c0,0.1-0.1,0-0.1,0
		c-0.2-0.2-0.4-0.3-0.6-0.5c0,0,0,0,0-0.1c0,0,0,0-0.1,0c0.1,0.1,0.2,0.2,0.3,0.3c0.1,0,0.2,0,0.1,0.1c-0.1,0-0.2-0.2-0.3-0.2v0.1
		c-0.1,0-0.1-0.1-0.1-0.1s0.1,0,0,0.1c-0.2,0-0.2-0.2-0.3-0.2c0,0.1,0.3,0.2,0.3,0.3h-0.1c-0.2-0.2-0.3-0.3-0.5-0.5
		c0.1,0.2,0.3,0.3,0.4,0.5c0,0,0,0,0.1,0c0,0.1,0,0.1,0,0.2H36v0.1c0.1,0,0.1,0.1,0.1,0.1h0.1c0,0,0-0.1,0.1,0s0.1,0.1,0.2,0.1
		c0,0,0,0,0,0.1c0,0,0.1,0,0.1,0.1v0.1c0.1,0,0.1,0.1,0.2,0.1c0,0.1,0.1,0.1,0.1,0.2c-0.1,0-0.1,0-0.2,0v-0.1
		c-0.1-0.1-0.1,0-0.1-0.1c0,0,0,0,0-0.1c-0.1-0.1-0.1-0.1-0.2-0.2c0,0,0,0,0,0.1c0-0.1-0.1,0-0.1-0.1V20C36,20,36,19.9,36,19.9
		s-0.1,0-0.2-0.1l0,0c-0.1,0-0.1-0.1-0.1-0.1s0,0,0,0.1c0,0-0.1,0.1-0.1,0l0,0c0-0.1,0-0.1,0-0.1h-0.1c-0.1-0.1-0.1-0.1-0.2-0.2
		c0-0.1-0.1-0.2-0.2-0.1c0,0.1,0.1,0.1,0.2,0.2v0.1v-0.1c0.1,0.1,0,0.1,0,0.2c-0.1,0-0.1,0-0.1-0.1s-0.1-0.1-0.1-0.1
		c0-0.1-0.1-0.1-0.2-0.1c-0.1-0.1-0.1-0.2-0.2-0.2c0,0.1,0.1,0.1,0.1,0.1l-0.1,0.1v-0.1c-0.1,0-0.2-0.2-0.3-0.2c0,0,0,0,0-0.1
		c0,0,0,0.1,0,0c0,0,0.1-0.1,0-0.1s-0.1,0-0.2,0c0,0.1,0.1,0.2,0.2,0.2c0,0.1,0.1,0.1,0,0.1c-0.2-0.2-0.4-0.4-0.5-0.6
		c0,0.2,0.3,0.3,0.2,0.4c-0.1-0.1-0.2-0.2-0.3-0.3c0,0,0,0.1,0,0c-0.1,0-0.1-0.1-0.1-0.1v0.1c-0.1-0.1-0.1-0.1-0.1-0.2
		c0,0.1,0.1,0.1,0.1,0.2c0,0,0,0-0.1,0c0,0,0,0,0,0.1c-0.1-0.1-0.1-0.2-0.2-0.3c0,0.1-0.1,0.1-0.1,0.1s-0.1-0.1-0.1-0.2h-0.1
		c0,0,0,0,0-0.1l0,0c0,0,0-0.1-0.1-0.1c-0.1,0.1,0,0.1,0,0.1l-0.1-0.1c0,0,0-0.1-0.1-0.1c0,0,0.1,0.1,0,0.1s-0.1,0-0.1-0.1
		c0,0,0,0.1,0,0c0,0,0,0,0-0.1c0,0-0.1,0-0.1,0.1s0.1,0.1,0,0.2c-0.1-0.1-0.1-0.2-0.2-0.3c-0.1,0.1,0,0.2,0,0.3
		c-0.1,0-0.1,0-0.1-0.1c-0.1,0.1,0,0.2-0.1,0.4c0,0,0,0-0.1,0c0,0.1,0,0.1,0.1,0.1v0.1c0.1,0.1,0.1,0.3,0.2,0.4
		c0.1,0.1,0.2,0.3,0.3,0.4c0,0,0,0.1,0.1,0.1c0.1,0.1,0.1,0.1,0.1,0.2c0.1,0.2,0.3,0.3,0.4,0.5c0.2,0.1,0.3,0.3,0.5,0.5
		s0.4,0.4,0.6,0.6c0.3,0.3,0.7,0.6,1,0.9c0.2,0.2,0.4,0.3,0.6,0.5c0,0,0,0,0.1,0c0,0.1,0.1,0.1,0.2,0.2c0.1,0.1,0.2,0.2,0.3,0.3
		c0.1,0.1,0.2,0.2,0.3,0.2c0,0.1,0.1,0.1,0.1,0.1c0.2,0.1,0.3,0.3,0.5,0.4c0.1,0.1,0.3,0.2,0.4,0.3c0,0,0,0.1,0.1,0.1h0.1
		c0.1,0,0.1,0.1,0.1,0.1c0,0.1,0.1,0.1,0.2,0.1c0.1,0,0.2,0,0.2,0.1c0,0,0,0,0.1,0c0.1,0.2,0.4,0.4,0.6,0.5v-0.1
		c0.1,0,0.1,0.1,0.2,0.2c0,0.1,0.1,0.2,0.2,0.2c0.2,0.1,0.4,0.3,0.6,0.5c0,0,0,0,0.1,0c0.1,0.1,0.1,0.1,0.2,0.1
		c0,0.1,0.2,0.2,0.3,0.2v0.1c0.1,0,0.2,0.1,0.3,0.2c0,0,0.1,0,0.1,0.1c0.1,0,0.1,0.1,0.2,0.1h0.1c0.1,0.1,0.1,0.2,0.2,0.2
		c0,0.1,0.1,0.1,0.2,0.2c0.1,0.1,0.2,0.2,0.3,0.2l0,0c0,0,0,0.1,0.1,0.1c0.1,0.1,0.2,0.1,0.2,0.1c0,0.1,0.1,0.1,0.2,0.2l0,0
		c0.1,0,0.2,0.1,0.3,0.2c0,0,0,0,0,0.1c0.1,0,0.1,0.1,0.1,0.1s0,0,0.1,0c0.2,0.2,0.4,0.3,0.7,0.5V29c0.2,0.1,0.4,0.2,0.5,0.4
		c0,0,0,0,0.1,0c0,0,0,0,0,0.1c0,0,0,0,0.1,0c0,0.1,0.1,0.1,0.2,0.2c0.1,0.1,0.1,0.1,0.2,0.2c0,0,0,0,0,0.1c0.1,0,0.1,0.2,0.3,0.1
		c0,0.1,0.1,0.1,0.1,0.1s0,0,0,0.1c0.1,0,0.1,0.1,0.2,0.1c0,0,0,0,0,0.1c0.2,0.1,0.3,0.2,0.4,0.3c0.1,0.1,0.4,0.1,0.4,0.3
		c0,0,0,0,0.1,0c0,0,0,0,0,0.1c0.1,0,0.2,0.2,0.3,0.2c0.2,0.1,0.4,0.3,0.6,0.4l0,0c-0.1,0-0.2,0-0.3,0c-0.4,0-0.8,0-1.1,0
		c0,0,0,0-0.1,0s-0.3,0-0.4,0c-0.2-0.1-0.5,0-0.7,0s-0.4-0.1-0.6,0c-0.1-0.1-0.2,0-0.3,0c-0.3,0-0.7,0-1,0c-0.2,0-0.5,0-0.7,0
		c-0.1,0-0.1,0-0.1,0c-0.1,0-0.1,0-0.1,0c-0.1,0-0.1,0-0.2,0c-0.1,0-0.2,0-0.3,0c0,0.1-0.2,0.1-0.3,0c0,0,0,0-0.1,0
		c-0.3-0.1-0.9,0-1.2,0c0,0,0.1,0,0,0.1c-0.1,0-0.3-0.1-0.4,0c-0.1,0-0.3-0.1-0.4-0.1c-0.4,0-0.9,0-1.2,0c0,0,0,0-0.1,0
		s-0.2,0-0.3,0c-0.1-0.1-0.4,0-0.5,0H37c-0.2,0.1-0.4,0-0.6,0c-0.1,0-0.1,0-0.2,0c-0.1,0-0.2,0-0.3,0s-0.1,0-0.2,0
		c-0.1,0-0.3-0.1-0.5,0c-0.1-0.1-0.3,0-0.4,0c-0.2,0-0.4,0-0.5,0c0,0,0,0-0.1,0s-0.1,0-0.2,0c-0.1,0-0.3,0-0.4,0.1
		c-0.1,0-0.3,0-0.4,0c0,0,0,0,0-0.1c-0.1,0.1-0.3,0-0.5,0h-0.1c-0.1,0-0.1,0-0.3,0h-0.1c-0.5,0-0.8,0-1.3,0c0,0-0.1,0-0.1-0.1
		c-0.3,0-0.7,0.1-1,0c0,0,0,0-0.1,0c0,0,0-0.1-0.1,0c-0.1,0,0,0-0.1,0c-0.1-0.1-0.3,0-0.4,0s-0.3,0-0.4,0h-0.1
		c-0.1,0.1-0.3-0.1-0.4,0c0-0.1-0.2,0-0.2,0s0,0-0.1,0c-0.1,0.1-0.3,0-0.3,0s0-0.1-0.1,0c-0.3,0-0.5,0-0.8,0s-0.6,0.1-0.8,0
		c0,0,0,0-0.1,0h-0.1c-0.2,0-0.4,0-0.6,0c-0.3,0-0.7,0-1,0c-0.1,0-0.1,0-0.2,0h-0.1c-0.4-0.1-0.9,0-1.3,0c-1.2,0-2.4,0-3.5,0
		s-2.2-0.2-3.3-0.1c-0.1,0-0.2,0-0.3,0l-0.1,0.1c0.1,0.1,0,0.2,0,0.3s0.1,0.1,0.2,0.2c0,0,0,0.1,0.1,0.2c0.1,0.1,0.2,0.1,0.2,0.1
		c0,0.1,0.1,0.1,0.1,0.2c0.1,0,0.1,0,0.2,0c-0.1,0.1,0.1,0.1,0.1,0.2c-0.1,0.1,0.1,0.4-0.1,0.5c0,0,0,0,0,0.1c0,0-0.1,0-0.1,0.1
		c0,0,0.1,0,0.1,0.1c0,0-0.1,0-0.1,0.1s0.1,0,0.1,0.1c0,0.2,0.1,0.2,0.2,0.3c0,0.1-0.1,0.1,0,0.1c0,0,0.1,0,0.2,0
		c0,0.1-0.1,0.1,0,0.1c0,0-0.1,0-0.2,0.1c0.1,0.1,0.3,0,0.3,0h-0.1c0.2,0,0.4,0.1,0.6,0.1c-0.1,0-0.2,0-0.2,0c0.1,0,0.4,0,0.5,0.1
		c-0.1,0-0.3,0-0.4,0c0.1,0,0.2,0,0.2,0.1s-0.1,0.1-0.2,0.1c0,0.1,0.1,0,0.1,0.1H17c0.1,0,0.2,0,0.3,0c0,0,0,0,0,0.1
		c0.3,0.1,0.8,0.1,1.2,0.1c-0.1,0.1,0.1,0.1,0,0.1c0.1,0,0.1,0,0.2,0c0,0,0,0.1,0.1,0.1c0.4,0,0.8,0.1,1.2,0.1c1,0,2,0,2.9,0
		c0.2,0,0.5,0,0.7,0c0.3,0,0.7,0,1,0c0.5,0,1.1,0,1.6,0c1.7-0.1,3.4,0,5.1,0c0.1,0.1,0.3,0,0.4,0s0.1,0,0.1,0h0.1c0.1,0,0.3,0,0.3,0
		c0.1,0,0.1,0.1,0.1,0.1s0.1,0,0.2,0c0.1,0,0.3,0,0.5,0c0.1,0.1,0.3,0,0.4,0c0.3,0,0.6,0,0.8,0c0.6,0,1.2,0,1.8,0
		c0.1,0.1,0.3,0,0.4,0c0.1,0,0.2,0,0.3,0c1.3-0.1,2.5,0,3.7-0.1c0.3,0,0.7,0.1,1,0c0.4,0,0.9,0,1.3-0.1c0.1,0.1,0.2,0,0.3,0
		s0.2,0.1,0.3,0c0.2,0.1,0.6,0,0.9,0c0,0,0,0,0.1,0c0.2,0.1,0.4,0,0.5,0c0.1-0.1,0.3-0.1,0.5-0.1l0,0c0,0,0,0-0.1,0l0,0l0,0
		c-0.2,0.2-0.4,0.5-0.6,0.7c-0.8,0.9-1.6,1.6-2.4,2.4c-0.1,0-0.1,0.1-0.2,0.2h-0.1v0.1c0,0.1-0.1,0.1-0.2,0.2h-0.1
		c0,0,0,0.1-0.1,0.1c-0.1,0.1-0.2,0.1-0.2,0.2c-0.1,0-0.2,0.1-0.2,0.2c-0.1,0.1-0.3,0.3-0.4,0.4c-0.3,0.3-0.6,0.5-0.8,0.8
		c-0.1,0-0.1,0.1-0.2,0.2l-0.1,0.1c-0.6,0.6-1.2,1.1-1.7,1.7c-0.2,0.1-0.4,0.3-0.5,0.4c-0.2,0.2-0.4,0.4-0.6,0.6
		c-0.1,0-0.1,0.1-0.1,0.1s-0.1,0-0.1,0.1c-0.2,0-0.3,0.3-0.5,0.3c0,0,0,0,0,0.1c-0.1,0-0.2,0.2-0.3,0.2c0,0.2-0.2,0.2-0.3,0.3h-0.1
		l0,0v0.1C35,45.3,35,45.5,35,45.5c-0.1,0-0.1,0.1-0.1,0.1h-0.1v0.1c0,0,0,0-0.1,0c0,0.1-0.1,0.1-0.2,0.2c-0.1,0-0.1,0-0.2,0.1
		c0,0,0.1,0,0,0.1l0,0c0,0,0-0.1-0.1,0v0.1h-0.1c0,0.1-0.1,0.1-0.2,0.2c0,0.1,0,0.1-0.1,0.2c0,0,0,0-0.1-0.1c0,0.1-0.1,0.1-0.1,0.1
		h0.1c-0.1,0.1-0.2,0.1-0.2,0.2c0.1,0.1,0.1,0,0.1-0.1c0.1,0.1,0,0.1,0,0.1c-0.2,0.2-0.4,0.3-0.6,0.5c0,0,0,0-0.1,0c0,0,0,0,0,0.1
		c0.1-0.1,0.2-0.1,0.3-0.2l0.1-0.1c0,0.1-0.2,0.1-0.3,0.3h0.1c0,0.1-0.1,0-0.1,0.1c0,0,0-0.1,0.1,0c0,0.2-0.3,0.1-0.3,0.3
		c0.1,0,0.2-0.2,0.4-0.2v0.1c-0.2,0.1-0.4,0.3-0.6,0.5c0.2-0.1,0.4-0.3,0.6-0.3c0,0,0,0,0-0.1c0.1,0,0.1,0,0.2,0v-0.1l0.1,0.1
		c0-0.1,0.1-0.1,0.2-0.1c0,0,0-0.1,0.1-0.1c0,0-0.1,0,0-0.1s0.1-0.1,0.2-0.1c0,0,0,0,0.1,0c0,0,0-0.1,0.1-0.1c0,0,0.1,0,0.1,0.1
		c0-0.1,0.1-0.1,0.2-0.2c0.1,0,0.1-0.1,0.2-0.1c0,0.1-0.1,0.1,0,0.2h-0.1c-0.1,0,0,0.1-0.1,0.1c0,0,0,0-0.1,0
		c-0.1,0.1-0.2,0.1-0.2,0.2l0,0c-0.1,0-0.1,0-0.1,0.1H34c0,0.1-0.1,0.1-0.1,0.1l-0.1,0.1l0,0c0,0-0.1,0-0.1,0.1c0,0,0,0,0.1,0
		c0,0,0.1,0.1,0,0.1c0,0,0,0,0-0.1c-0.1,0-0.1,0-0.1,0v0.1c-0.1,0.1-0.2,0.1-0.2,0.2l-0.2,0.1c0.1,0,0.1-0.1,0.2-0.1h0.1h-0.1
		c0.1-0.1,0.1,0,0.2,0c0,0.1-0.1,0.1-0.1,0.1c-0.1,0-0.1,0.1-0.2,0.1c-0.1,0-0.1,0.1-0.2,0.1c-0.1,0.1-0.2,0.1-0.2,0.2
		c0.1,0,0.1-0.1,0.2-0.1c0,0,0.1,0.1,0,0.1h-0.1c0,0.1-0.3,0.1-0.3,0.3c0,0,0,0-0.1,0c0,0,0,0,0,0.1c0,0-0.1-0.1-0.1,0
		s0,0.1-0.1,0.2c0.1,0,0.2-0.1,0.3-0.1s0.1-0.1,0.1,0c-0.2,0.2-0.4,0.3-0.7,0.5c0.1,0,0.3-0.2,0.5-0.1c-0.1,0.1-0.3,0.2-0.4,0.3
		c0,0,0,0,0,0.1s-0.1,0.1-0.1,0.1h0.1c-0.1,0-0.1,0.1-0.2,0.1c0.1,0.1,0.1-0.1,0.2,0c0,0-0.1,0,0,0.1c0,0,0,0,0.1,0
		c-0.1,0.1-0.2,0.1-0.4,0.2c0.1,0.1,0,0.1,0.1,0.2c0,0-0.1,0.1-0.2,0.1V51c0,0,0,0-0.1,0l0,0c0,0-0.1,0-0.1,0.1s0.1,0,0.1,0
		s-0.1,0-0.1,0.1h-0.1c0,0,0.1-0.1,0.1,0s0,0.1-0.1,0.1c0,0,0,0,0,0.1c0,0,0,0-0.1,0c0,0.1,0,0.1,0.1,0.1s0.1,0,0.2,0
		c-0.1,0.1-0.2,0.1-0.3,0.1c0.1,0.1,0.2,0,0.3,0.1c0.2-0.4,0.2-0.4,0.2-0.4c0.1,0.1,0.2,0,0.4,0.1c0,0,0,0,0,0.1
		c0.1,0,0.1,0,0.2-0.1h0.1c0.2,0,0.3-0.1,0.5-0.1c0.1-0.1,0.3-0.1,0.5-0.2c0,0,0.1,0,0.1-0.1c0.1-0.1,0.1-0.1,0.2-0.1
		c0.2-0.1,0.3-0.3,0.5-0.3c0.1-0.2,0.4-0.3,0.6-0.4c0.2-0.2,0.5-0.3,0.7-0.5c0.4-0.3,0.8-0.6,1.1-0.9c0.2-0.2,0.4-0.3,0.6-0.5
		c0,0,0,0,0-0.1c0.1,0,0.1-0.1,0.2-0.2c0.1,0,0.2-0.2,0.3-0.3s0.3-0.2,0.3-0.3c0.1,0,0.1-0.1,0.1-0.1c0.2-0.1,0.4-0.3,0.5-0.5
		c0.1-0.1,0.2-0.3,0.4-0.3h0.1v-0.1c0-0.1,0.1,0,0.1-0.1s0.1-0.1,0.2-0.1c0-0.1,0.1-0.2,0.1-0.1c0,0,0,0,0-0.1
		c0.2-0.1,0.5-0.4,0.6-0.5h-0.1c0.1-0.1,0.2-0.1,0.2-0.2c0.1,0,0.2-0.1,0.2-0.2c0.2-0.2,0.4-0.4,0.6-0.6c0,0,0,0,0-0.1
		c0.1,0,0.1-0.1,0.1-0.2c0.1,0,0.2-0.2,0.3-0.2h0.1c0-0.1,0.2-0.2,0.3-0.3l0.1-0.1c0.1-0.1,0.1-0.1,0.2-0.1c0,0,0-0.1,0.1-0.1
		c0.1-0.1,0.2-0.1,0.2-0.2c0.1,0,0.1-0.1,0.2-0.2c0.1-0.1,0.2-0.1,0.3-0.2l0,0c0,0,0.1,0,0.1-0.1c0.1-0.1,0.1-0.2,0.2-0.2
		c0.1,0,0.1-0.1,0.2-0.2l0,0c0-0.1,0.2-0.2,0.2-0.3H44c0-0.1,0.1-0.1,0.1-0.1s0,0,0-0.1c0.2-0.2,0.4-0.3,0.6-0.6h0.1
		c0.1-0.2,0.3-0.4,0.5-0.5c0,0,0,0,0-0.1c0,0,0,0,0.1,0c0,0,0,0,0-0.1c0.1,0,0.1-0.1,0.2-0.2c0.1-0.1,0.1-0.1,0.2-0.2c0,0,0,0,0.1,0
		c0-0.1,0.2-0.1,0.2-0.2c0.1,0,0.1-0.1,0.1-0.1s0,0,0.1,0c0-0.1,0.1-0.1,0.1-0.2c0,0,0,0,0.1,0c0.1-0.1,0.2-0.2,0.4-0.4
		c0.1-0.1,0.2-0.3,0.3-0.4c0,0,0,0,0-0.1h0.1c0.1-0.1,0.2-0.2,0.3-0.3c0.2-0.1,0.4-0.3,0.5-0.5c0.1,0,0.1-0.1,0.1-0.1v-0.1
		c0.2-0.1,0.4-0.4,0.6-0.6c0.5-0.6,1.1-1,1.6-1.4c0.4-0.3,0.7-0.5,1.1-0.6c0.1,0.1,0.3,0.2,0.5,0.3c0.1,0,0.1,0,0.2,0.1
		c0,0,0.1,0,0.1-0.1s0.1-0.1,0.2-0.2c0.1-0.1,0-0.2,0-0.3s0-0.1,0.1-0.2c0-0.1-0.1-0.1,0-0.2c0-0.1,0-0.1,0-0.1c0.1,0,0.2,0,0.3,0
		c-0.1,0-0.2-0.1-0.3-0.1l0,0l-0.1-0.1l0,0c0.1,0,0.3,0,0.4,0c0,0,0,0,0-0.1c0.1,0,0.1,0,0.2,0c0,0-0.1,0,0-0.1c0.1,0,0.2,0,0.3,0
		c0-0.1-0.2,0-0.2-0.1h0.1c0,0-0.1,0-0.1-0.1c0.2,0,0.3,0.1,0.6,0.1c0-0.1,0.1-0.1,0-0.2c0.1,0,0.2,0,0.3,0l0.1-0.1h0.1
		c0,0,0,0,0-0.1c0.1,0,0.1,0,0.1,0c0-0.1-0.1,0-0.1-0.1c0,0,0.1,0,0.2,0c0,0,0.1,0.1,0.1,0c-0.1,0-0.2,0-0.2-0.1c0,0,0.1,0,0.2,0
		v-0.1c0.1,0,0.1,0,0.1,0c0-0.1,0.1-0.1,0.1-0.1C54.6,33.2,54.4,33.2,54.4,33.2z M36,19.5c0.1,0,0.1,0.1,0.1,0.1L36,19.5z
		 M36.1,19.5C36.2,19.5,36.2,19.6,36.1,19.5C36.2,19.6,36.1,19.6,36.1,19.5z M36.5,19.6C36.4,19.6,36.4,19.6,36.5,19.6
		C36.4,19.5,36.5,19.6,36.5,19.6z M36.5,20L36.5,20c-0.1-0.1-0.1-0.1-0.1-0.1s0,0-0.1,0s-0.1-0.1-0.2-0.1v-0.1l0,0
		c0,0.1,0,0.2,0.1,0.1C36.4,19.8,36.5,19.8,36.5,20C36.5,19.9,36.5,19.9,36.5,20C36.5,19.9,36.5,19.9,36.5,20z M36.5,19.7L36.5,19.7
		C36.5,19.6,36.5,19.7,36.5,19.7z M36.7,20.1C36.6,20.1,36.6,20.1,36.7,20.1C36.6,20,36.7,20,36.7,20.1L36.7,20.1z M33,19.3
		C33,19.3,33,19.2,33,19.3C33.1,19.2,33.1,19.3,33,19.3z M33.1,18.5C33.1,18.6,33.1,18.6,33.1,18.5C33,18.6,33,18.6,33.1,18.5z
		 M33.1,19.3l0.1,0.1C33.1,19.5,33.1,19.4,33.1,19.3z M33.4,18.7C33.5,18.6,33.5,18.8,33.4,18.7L33.4,18.7z M33.4,19.4
		C33.4,19.4,33.3,19.4,33.4,19.4C33.4,19.3,33.4,19.4,33.4,19.4z M33.5,19.9c-0.1-0.1-0.2-0.1-0.2-0.3
		C33.4,19.7,33.5,19.7,33.5,19.9C33.5,19.8,33.5,19.8,33.5,19.9z M33.6,20C33.6,19.9,33.6,19.9,33.6,20C33.6,19.9,33.6,19.9,33.6,20
		C33.6,19.9,33.7,19.9,33.6,20z M33.7,20.1C33.8,20.1,33.8,20.1,33.7,20.1C33.8,20.1,33.7,20.1,33.7,20.1z M33.8,18.9L33.8,18.9
		C33.7,18.9,33.7,18.9,33.8,18.9L33.8,18.9C33.7,18.9,33.7,18.9,33.8,18.9L33.8,18.9L33.8,18.9L33.8,18.9L33.8,18.9z M33.9,18.9
		C33.9,18.9,33.9,18.8,33.9,18.9C33.9,18.8,34,18.8,33.9,18.9z M34.7,21l-0.1-0.1C34.7,20.9,34.7,21,34.7,21z M34.7,19.3
		C34.6,19.3,34.6,19.3,34.7,19.3C34.6,19.2,34.7,19.2,34.7,19.3z M34.7,19.1L34.7,19.1L34.7,19.1z M34.8,20.9L34.8,20.9L34.8,20.9z
		 M35.5,19.6C35.5,19.5,35.6,19.6,35.5,19.6L35.5,19.6z M35.6,19.7C35.6,19.6,35.6,19.6,35.6,19.7C35.6,19.6,35.6,19.6,35.6,19.7z
		 M35.8,19.7C35.8,19.7,35.9,19.7,35.8,19.7L35.8,19.7z M35.8,19.8c0.1,0,0.1,0.1,0.1,0.1C35.9,20,35.8,19.9,35.8,19.8z M36,20
		C36,20,36.1,20,36,20C36,20.1,36,20.1,36,20z M36.5,20.4C36.4,20.4,36.4,20.4,36.5,20.4L36.5,20.4z M36.6,20.5L36.6,20.5
		C36.6,20.6,36.6,20.6,36.6,20.5z M37,20.7L37,20.7C37,20.7,37.1,20.7,37,20.7C37.1,20.7,37.1,20.7,37,20.7z M37,19.7L37,19.7
		c0.1,0,0.1,0.1,0.1,0.1C37,19.9,37,19.8,37,19.7z M37.2,20.8L37.2,20.8C37.2,20.9,37.2,20.9,37.2,20.8z M37.4,23.1
		C37.4,23.1,37.3,23.1,37.4,23.1L37.4,23.1z M37.4,21C37.4,21.1,37.4,21.1,37.4,21L37.4,21L37.4,21C37.3,21,37.3,21,37.4,21
		c-0.1-0.1-0.1-0.1,0-0.1s0.2,0.1,0.2,0.2C37.4,21.2,37.4,21,37.4,21z M37.5,21L37.5,21L37.5,21z M37.5,21.2
		C37.5,21.2,37.5,21.1,37.5,21.2C37.6,21.1,37.6,21.1,37.5,21.2z M37.8,20.5L37.8,20.5C37.8,20.4,37.8,20.5,37.8,20.5z M38.1,21.6
		C38,21.6,38,21.5,38.1,21.6C38,21.5,38.1,21.5,38.1,21.6L38.1,21.6z M38.4,20.7L38.4,20.7C38.4,20.7,38.3,20.7,38.4,20.7z
		 M38.4,21.2L38.4,21.2C38.5,21.2,38.4,21.3,38.4,21.2z M38.4,21C38.4,20.9,38.4,21,38.4,21L38.4,21z M38.5,20.9
		C38.5,20.9,38.6,20.9,38.5,20.9C38.5,21,38.5,20.9,38.5,20.9z M38.6,21L38.6,21C38.6,20.9,38.6,21,38.6,21L38.6,21z M44.3,33.2
		L44.3,33.2L44.3,33.2z M44.9,35.3L44.9,35.3C44.8,35.4,44.8,35.3,44.9,35.3z M44.8,35.6L44.8,35.6C44.9,35.6,44.9,35.6,44.8,35.6
		C44.9,35.6,44.9,35.6,44.8,35.6z M33.7,47.4L33.7,47.4C33.6,47.4,33.6,47.4,33.7,47.4z M33.5,47.5C33.5,47.4,33.6,47.4,33.5,47.5
		C33.7,47.5,33.6,47.5,33.5,47.5z M33.9,47C33.8,47.1,33.8,47.1,33.9,47C33.8,47,33.8,47,33.9,47z M33.8,47.1
		C33.8,47.1,33.7,47.2,33.8,47.1C33.7,47.1,33.7,47.1,33.8,47.1z M34,47.2C34,47.2,34,47.1,34,47.2C33.9,47.2,34,47.2,34,47.2
		c-0.1,0.1-0.1,0.1-0.2,0.1c0,0-0.1,0-0.1-0.1l0,0C33.8,47.2,33.9,47.2,34,47.2c0-0.1,0-0.2,0-0.2C34,47.1,34,47.1,34,47.2
		C34.1,47.1,34.1,47,34,47.2L34,47.2z M34,46.6L34,46.6C34,46.5,34.1,46.5,34,46.6L34,46.6z M34.2,47L34.2,47L34.2,47L34.2,47z
		 M33.5,48C33.5,48,33.6,48,33.5,48C33.6,48,33.6,48,33.5,48z M32.9,48.8C32.9,48.8,32.9,48.7,32.9,48.8C33,48.8,33,48.8,32.9,48.8z
		 M32.1,50.3L32.1,50.3C32.2,50.4,32.1,50.4,32.1,50.3z M32.3,50C32.3,49.9,32.4,50,32.3,50L32.3,50z M32.5,49.5L32.5,49.5
		C32.6,49.5,32.5,49.5,32.5,49.5z M32.6,49.7L32.6,49.7L32.6,49.7L32.6,49.7L32.6,49.7L32.6,49.7L32.6,49.7L32.6,49.7L32.6,49.7z
		 M32.8,50.5C32.8,50.4,32.8,50.4,32.8,50.5L32.8,50.5z M32.9,50.4L32.9,50.4C33,50.4,32.9,50.4,32.9,50.4z M32.9,50.2
		C32.9,50.2,33,50.1,32.9,50.2C33,50.2,33,50.2,32.9,50.2z M33.1,48.9C33,48.9,33.1,48.8,33.1,48.9L33.1,48.9z M33.2,50.2
		c0.1-0.1,0.1-0.1,0.2-0.2l0,0C33.4,50.1,33.3,50.3,33.2,50.2z M33.5,50L33.5,50C33.5,50,33.6,49.9,33.5,50C33.6,50,33.6,50,33.5,50
		z M33.6,48C33.6,48,33.6,47.9,33.6,48L33.6,48z M33.7,49.9C33.8,49.8,33.8,49.9,33.7,49.9C33.8,49.9,33.8,49.9,33.7,49.9z
		 M33.7,47.8C33.7,47.7,33.7,47.7,33.7,47.8L33.7,47.8z M33.9,47.8C34,47.8,34,47.7,33.9,47.8L33.9,47.8z M34.1,47.6L34.1,47.6
		C34.2,47.6,34.1,47.6,34.1,47.6z M34.5,47.2C34.5,47.2,34.6,47.2,34.5,47.2C34.6,47.2,34.6,47.3,34.5,47.2z M34.7,47.1
		C34.8,47.1,34.7,47.1,34.7,47.1L34.7,47.1z M34.8,48.9C34.8,48.9,34.7,49,34.8,48.9C34.7,48.9,34.7,48.9,34.8,48.9z M34.8,49.1
		C34.8,49,34.9,49.1,34.8,49.1C34.9,49.1,34.8,49.2,34.8,49.1z M34.8,45.9C34.8,45.9,34.9,45.8,34.8,45.9
		C34.9,45.9,34.8,45.9,34.8,45.9z M34.9,46.7C34.9,46.7,34.9,46.6,34.9,46.7C35,46.6,35,46.7,34.9,46.7C35,46.7,35,46.7,34.9,46.7z
		 M35.1,46.5L35.1,46.5C35.2,46.5,35.1,46.6,35.1,46.5z M35.5,45.2C35.5,45.2,35.4,45.3,35.5,45.2C35.4,45.2,35.4,45.2,35.5,45.2z
		 M35.3,46.2C35.3,46.2,35.4,46.2,35.3,46.2C35.3,46.3,35.3,46.2,35.3,46.2z M35.2,45.3L35.2,45.3L35.2,45.3z M35.4,46.4L35.4,46.4
		L35.4,46.4C35.3,46.4,35.3,46.4,35.4,46.4C35.3,46.4,35.3,46.4,35.4,46.4C35.3,46.5,35.3,46.5,35.4,46.4c0-0.1,0-0.2,0.1-0.2
		C35.5,46.3,35.3,46.3,35.4,46.4z M35.5,46.2L35.5,46.2L35.5,46.2z M35.5,45.4C35.4,45.3,35.5,45.3,35.5,45.4
		C35.5,45.3,35.5,45.3,35.5,45.4z M35.5,45.2C35.5,45.1,35.5,45.1,35.5,45.2C35.5,45.1,35.5,45.1,35.5,45.2
		C35.6,45.2,35.5,45.2,35.5,45.2z M35.7,45.4L35.7,45.4C35.7,45.3,35.8,45.4,35.7,45.4z M35.9,45.8C35.9,45.8,36,45.8,35.9,45.8
		L35.9,45.8C36,45.8,36,45.8,35.9,45.8z M37.4,46.7C37.4,46.7,37.4,46.6,37.4,46.7L37.4,46.7z M45.1,34.8c0,0-0.1,0-0.2,0l0,0
		C45,34.8,45,34.8,45.1,34.8z M45.2,35.5L45.2,35.5C45,35.5,45.1,35.5,45.2,35.5z M45,35.6c0,0,0.1,0,0.2,0
		C45.1,35.6,45,35.6,45,35.6z M52.5,34.1C52.6,34.1,52.6,34.1,52.5,34.1C52.6,34.2,52.5,34.1,52.5,34.1z M52.7,34L52.7,34L52.7,34
		L52.7,34C52.7,34,52.7,33.9,52.7,34C52.7,33.9,52.7,33.9,52.7,34L52.7,34L52.7,34L52.7,34z M52.8,33.2L52.8,33.2c0-0.1,0.2,0,0.3,0
		C53.1,33.2,52.9,33.2,52.8,33.2z M53.2,33.2C53.2,33.2,53.3,33.2,53.2,33.2C53.2,33.3,53.2,33.2,53.2,33.2z M53.3,33.8
		C53.3,33.8,53.4,33.9,53.3,33.8C53.3,34,53.2,33.9,53.3,33.8z M53.8,33.7C53.9,33.7,53.9,33.7,53.8,33.7
		C53.9,33.8,53.8,33.8,53.8,33.7z"/>
	<path class="st0" d="M33.6,46.8C33.6,46.8,33.7,46.8,33.6,46.8L33.6,46.8C33.6,46.8,33.5,46.8,33.6,46.8
		C33.6,46.9,33.6,46.8,33.6,46.8z"/>
	<path class="st0" d="M35.4,45.1L35.4,45.1C35.3,45.1,35.3,45.1,35.4,45.1C35.3,45.2,35.3,45.1,35.4,45.1z"/>
	<path class="st0" d="M33.8,46.6L33.8,46.6C33.8,46.5,33.7,46.6,33.8,46.6z"/>
	<path class="st0" d="M33.5,46.9C33.5,47,33.6,46.9,33.5,46.9L33.5,46.9z"/>
	<path class="st0" d="M34.2,47.2L34.2,47.2C34.2,47.3,34.2,47.3,34.2,47.2z"/>
	<path class="st0" d="M33.2,48.3L33.2,48.3L33.2,48.3z"/>
	<path class="st0" d="M33.2,47.6C33.3,47.6,33.3,47.6,33.2,47.6C33.2,47.5,33.2,47.5,33.2,47.6z"/>
	<path class="st0" d="M32.8,48.1c-0.1,0-0.1,0.1-0.2,0.1C32.7,48.2,32.8,48.2,32.8,48.1z"/>
	<path class="st0" d="M33.1,47.3L33.1,47.3C33.1,47.4,33.1,47.4,33.1,47.3C33.2,47.4,33.1,47.3,33.1,47.3z"/>
	<path class="st0" d="M33.3,47.9L33.3,47.9L33.3,47.9z"/>
	<path class="st0" d="M36.7,19.4C36.7,19.5,36.7,19.5,36.7,19.4L36.7,19.4C36.8,19.4,36.7,19.3,36.7,19.4L36.7,19.4z"/>
	<path class="st0" d="M37,19.6C37,19.6,36.9,19.5,37,19.6C36.9,19.5,36.9,19.6,37,19.6z"/>
	<path class="st0" d="M36.6,19.3C36.6,19.4,36.6,19.4,36.6,19.3C36.6,19.4,36.6,19.3,36.6,19.3z"/>
	<path class="st0" d="M38.6,20.9L38.6,20.9C38.6,20.8,38.6,20.8,38.6,20.9C38.5,20.8,38.6,20.8,38.6,20.9z"/>
	<path class="st0" d="M36.1,19L36.1,19L36.1,19C36.1,19.1,36.1,19,36.1,19z"/>
	<path class="st0" d="M36.4,20C36.3,20.1,36.4,20.1,36.4,20C36.4,20.1,36.4,20,36.4,20z"/>
	<path class="st0" d="M36,19.2C36,19.2,35.9,19.1,36,19.2C35.9,19.2,35.9,19.2,36,19.2z"/>
	<path class="st0" d="M35.6,19.3L35.6,19.3L35.6,19.3z"/>
	<path class="st0" d="M35.2,19.3L35.2,19.3C35.3,19.3,35.2,19.3,35.2,19.3z"/>
	<path class="st0" d="M35.3,18.9l-0.1-0.1C35.2,18.8,35.3,18.8,35.3,18.9z"/>
</g>
</svg>
