<?xml version="1.0" encoding="utf-8"?>
<!-- Generator: Adobe Illustrator 23.1.1, SVG Export Plug-In . SVG Version: 6.00 Build 0)  -->
<svg version="1.1" id="Capa_1" xmlns="http://www.w3.org/2000/svg" xmlns:xlink="http://www.w3.org/1999/xlink" x="0px" y="0px"
	 viewBox="0 0 64 64" style="enable-background:new 0 0 64 64;" xml:space="preserve">
<style type="text/css">
	.st0{fill:#AFC1D6;}
</style>
<path class="st0" d="M14.2,9.4C6.4,9.4,0,15.8,0,23.6c0,7.5,5.9,13.7,13.4,14.2c0.1,1.4,0,5.2-3.6,10.4c-0.3,0.4-0.2,0.9,0.1,1.3
	c1.5,1.5,2.4,2.4,3,3.1c0.8,0.9,1.2,1.2,1.8,1.8c0.2,0.2,0.4,0.3,0.7,0.3c0.2,0,0.5-0.1,0.7-0.2c6.3-5.5,13.4-16.9,12.3-30.8
	C27.8,15.4,21.8,9.4,14.2,9.4z M15.4,52.2c-0.3-0.3-0.6-0.6-1-1.1c-0.6-0.6-1.3-1.3-2.5-2.5c4.4-6.8,3.6-11.6,3.2-12.3
	c-0.2-0.3-0.5-0.6-0.9-0.6C7.5,35.8,2,30.3,2,23.6c0-6.7,5.5-12.2,12.2-12.2c6.5,0,11.7,5.2,12.2,12.3
	C27.5,39.4,18.2,49.5,15.4,52.2z"/>
<path class="st0" d="M63.9,23.5L63.9,23.5c-0.6-8.2-6.6-14.1-14.2-14.1c-7.8,0-14.2,6.4-14.2,14.2c0,7.5,5.9,13.7,13.4,14.2
	c0.1,1.4,0,5.2-3.6,10.4c-0.3,0.4-0.2,0.9,0.1,1.3c1.5,1.5,2.4,2.4,3,3.1c0.8,0.9,1.2,1.3,1.8,1.8c0.2,0.2,0.4,0.3,0.7,0.3
	c0.2,0,0.5-0.1,0.7-0.2C57.9,48.8,64.9,37.5,63.9,23.5z M50.9,52.2c-0.3-0.3-0.6-0.6-1-1.1c-0.6-0.6-1.3-1.3-2.5-2.5
	c4.4-6.8,3.6-11.6,3.2-12.3c-0.2-0.3-0.5-0.6-0.9-0.6c-6.7,0-12.2-5.5-12.2-12.2c0-6.7,5.5-12.2,12.2-12.2c6.5,0,11.7,5.2,12.2,12.3
	v0C63,39.3,53.7,49.5,50.9,52.2z"/>
</svg>
